<?xml version="1.0" standalone="no"?>
<!DOCTYPE svg PUBLIC "-//W3C//DTD SVG 20010904//EN"
 "http://www.w3.org/TR/2001/REC-SVG-20010904/DTD/svg10.dtd">
<svg version="1.0" xmlns="http://www.w3.org/2000/svg"
 width="180.000000pt" height="180.000000pt" viewBox="0 0 180.000000 180.000000"
 preserveAspectRatio="xMidYMid meet">
<metadata>
Created by potrace 1.14, written by Peter Selinger 2001-2017
</metadata>
<g transform="translate(0.000000,180.000000) scale(0.100000,-0.100000)"
fill="#000000" stroke="none">
<path d="M233 1671 c-49 -24 -83 -58 -102 -102 -15 -33 -18 -69 -19 -207 0
-112 4 -172 12 -181 6 -8 10 -16 8 -18 -5 -7 27 -59 49 -77 48 -40 106 -51
264 -50 170 2 212 13 264 70 17 19 29 34 25 34 -4 0 -1 7 6 15 6 8 9 19 5 25
-3 5 -2 10 3 10 7 0 15 56 13 95 0 6 -2 36 -3 68 -2 33 0 61 4 63 4 3 5 10 3
17 -2 7 -6 39 -9 71 -4 34 -13 67 -23 78 -9 10 -13 18 -9 18 10 0 -34 42 -66
63 -16 9 -28 15 -28 11 0 -4 -6 -2 -12 4 -8 6 -80 10 -183 9 -134 0 -177 -4
-202 -16z m371 -110 c13 -8 28 -23 31 -35 12 -33 14 -277 3 -313 -16 -54 -36
-60 -203 -61 -211 0 -213 2 -208 218 1 80 3 150 4 155 2 11 29 40 29 31 0 -3
10 1 23 7 33 17 288 15 321 -2z"/>
<path d="M1173 1677 c-18 -5 -33 -14 -33 -18 0 -5 -4 -9 -10 -9 -15 0 -50 -33
-44 -42 3 -4 -3 -8 -12 -8 -10 0 -14 -3 -11 -6 3 -4 1 -16 -5 -27 -16 -31 -30
-215 -16 -223 4 -3 3 -15 -2 -28 -5 -13 -6 -26 -3 -30 3 -3 6 -27 7 -54 2 -52
22 -112 37 -112 5 0 9 -6 9 -13 0 -8 11 -19 25 -25 14 -6 25 -16 25 -22 0 -6
5 -8 10 -5 6 4 18 1 26 -6 10 -8 63 -12 172 -13 184 -1 232 10 286 67 19 21
33 37 30 37 -3 0 1 10 8 23 15 26 21 374 6 383 -4 3 -6 10 -3 15 4 5 1 9 -5 9
-6 0 -8 5 -5 10 3 6 1 10 -5 10 -6 0 -9 4 -6 8 3 5 -6 15 -19 22 -14 7 -25 20
-25 28 0 8 -6 12 -15 8 -9 -3 -15 0 -15 10 0 8 -5 12 -10 9 -6 -4 -16 -2 -23
3 -16 13 -332 12 -374 -1z m372 -129 l28 -27 1 -148 c2 -219 1 -220 -208 -221
-117 0 -155 3 -173 15 -13 8 -23 22 -23 29 0 8 -4 14 -9 14 -4 0 -8 69 -7 154
1 148 2 155 25 180 29 31 33 31 202 30 132 0 136 -1 164 -26z"/>
<path d="M300 759 c0 -3 -13 -4 -30 -3 -16 1 -34 -4 -41 -12 -6 -8 -15 -12
-19 -9 -4 3 -10 -2 -14 -10 -3 -8 -11 -15 -18 -15 -13 0 -51 -59 -46 -71 2 -3
-2 -12 -8 -20 -12 -15 -17 -335 -6 -354 4 -5 8 -18 9 -28 2 -10 10 -25 18 -33
8 -8 20 -23 27 -33 7 -10 32 -27 54 -38 36 -17 63 -20 205 -20 185 -1 228 10
279 69 30 34 51 91 46 123 -2 11 1 25 6 32 5 7 5 13 0 17 -9 5 -2 60 8 76 2 3
-2 15 -8 27 -8 15 -9 30 -2 47 5 14 6 27 2 30 -5 3 -7 20 -6 38 1 18 -4 45
-12 60 -8 15 -12 28 -9 28 3 0 -9 16 -26 35 -18 19 -38 35 -45 35 -7 0 -14 4
-16 9 -2 6 -16 12 -33 15 -16 2 -30 5 -30 6 0 1 -64 3 -143 4 -78 0 -142 -2
-142 -5z m290 -118 c0 -4 12 -13 26 -19 14 -7 23 -16 19 -21 -3 -5 -2 -12 3
-15 11 -7 8 -285 -3 -311 -10 -24 -37 -45 -47 -39 -5 3 -8 1 -8 -3 0 -5 -68
-8 -151 -7 l-151 1 -25 28 c-25 26 -26 33 -28 159 0 72 2 147 6 166 14 60 32
67 205 68 85 1 154 -2 154 -7z"/>
<path d="M1182 752 c-26 -8 -56 -24 -68 -37 -12 -13 -24 -21 -27 -19 -3 3 -10
-11 -17 -30 -6 -20 -15 -36 -19 -36 -4 0 -8 -13 -9 -30 -3 -61 -4 -145 -2
-155 1 -5 2 -12 1 -15 -5 -13 -5 -110 -1 -110 3 0 5 -12 6 -27 1 -55 5 -65 54
-122 8 -10 34 -27 57 -38 36 -18 62 -20 205 -21 90 0 168 3 173 7 6 4 17 7 25
6 8 0 23 9 32 20 10 11 17 16 18 12 0 -5 11 4 23 20 50 59 54 79 54 261 0 95
-4 175 -8 178 -5 3 -9 14 -9 25 0 29 -76 97 -124 110 -59 17 -307 17 -364 1z
m350 -118 c36 -19 41 -39 42 -191 1 -135 -7 -198 -24 -188 -6 4 -10 1 -10 -4
0 -6 -7 -11 -15 -11 -8 0 -15 -3 -15 -7 0 -14 -283 -7 -312 7 -39 19 -47 55
-44 217 l2 142 28 24 c27 24 34 25 175 25 105 0 153 -4 173 -14z"/>
</g>
</svg>
