<?xml version="1.0" standalone="no"?>
<!DOCTYPE svg PUBLIC "-//W3C//DTD SVG 20010904//EN"
 "http://www.w3.org/TR/2001/REC-SVG-20010904/DTD/svg10.dtd">
<svg version="1.0" xmlns="http://www.w3.org/2000/svg"
 width="1130.000000pt" height="1130.000000pt" viewBox="0 0 1130.000000 1130.000000"
 preserveAspectRatio="xMidYMid meet">
<metadata>
Created by potrace 1.14, written by Peter Selinger 2001-2017
</metadata>
<g transform="translate(0.000000,1130.000000) scale(0.100000,-0.100000)"
fill="#000000" stroke="none">
<path d="M5205 10920 c-657 -43 -1271 -194 -1857 -457 -149 -67 -168 -78 -168
-99 0 -13 16 -140 35 -282 48 -342 153 -1108 280 -2037 262 -1918 308 -2250
310 -2253 2 -2 54 6 116 17 138 25 296 46 488 66 79 8 145 16 147 18 2 2 -9
289 -26 638 -16 349 -33 713 -36 810 l-7 176 97 8 c54 4 101 3 106 -1 4 -5 12
-126 19 -269 6 -143 22 -501 36 -795 14 -294 25 -539 25 -545 0 -7 110 -9 317
-6 293 3 647 -9 818 -28 39 -5 72 -7 74 -5 5 4 120 1534 121 1598 l0 39 101
-6 c55 -3 103 -8 107 -11 6 -7 -4 -159 -77 -1136 -21 -278 -37 -506 -36 -508
1 -1 73 -13 159 -27 444 -70 944 -191 1231 -299 346 -131 660 -329 923 -580
296 -284 549 -650 691 -999 73 -180 147 -464 173 -667 17 -140 17 -649 0 -790
-29 -224 -87 -500 -137 -639 -8 -24 -13 -46 -11 -48 6 -6 254 263 361 392 555
666 943 1469 1119 2315 165 792 150 1606 -44 2387 -203 812 -583 1548 -1131
2188 -139 163 -425 446 -589 585 -844 712 -1840 1131 -2935 1235 -199 19 -614
27 -800 15z"/>
<path d="M2808 10181 c-235 -142 -482 -317 -673 -476 -103 -85 -380 -341 -412
-380 -14 -16 -56 -62 -95 -102 l-69 -72 262 -948 c144 -521 294 -1067 334
-1213 40 -146 139 -503 220 -795 80 -291 160 -582 177 -645 17 -63 35 -119 39
-123 3 -5 38 5 75 21 223 98 488 188 755 256 148 38 174 48 172 63 -14 105
-107 788 -208 1523 -235 1710 -405 2959 -405 2969 0 22 -28 9 -172 -78z"/>
<path d="M1297 8828 c-591 -785 -943 -1673 -1053 -2658 -22 -197 -30 -731 -15
-942 113 -1547 880 -2955 2116 -3885 600 -451 1324 -782 2049 -937 383 -82
712 -116 1119 -116 444 0 834 43 1207 133 l95 23 -77 41 c-573 309 -997 939
-1152 1713 -47 234 -70 502 -47 539 11 17 13 10 31 -109 18 -124 39 -184 246
-719 86 -222 113 -266 388 -651 257 -359 611 -600 999 -681 143 -30 371 -30
514 0 611 128 1110 638 1351 1381 186 575 184 1271 -5 1785 -39 105 -154 342
-220 452 l-58 98 -7 -105 c-10 -164 -49 -302 -124 -438 -324 -591 -1136 -730
-1648 -283 -379 330 -466 865 -210 1293 91 152 267 314 432 397 89 45 223 87
320 102 l84 13 -71 27 c-39 15 -135 43 -214 63 -78 20 -184 48 -236 61 -180
48 -358 85 -624 130 -147 25 -278 45 -291 45 -23 0 -23 -1 -40 -247 -10 -137
-32 -432 -50 -658 l-31 -410 -100 4 c-55 2 -102 5 -104 7 -5 4 11 231 59 869
16 215 30 408 30 431 l0 41 -167 14 c-161 13 -994 21 -1006 9 -3 -3 8 -286 24
-630 16 -344 29 -648 29 -677 l0 -52 -101 -3 c-62 -2 -103 1 -105 7 -1 6 -14
271 -28 590 -15 319 -29 620 -32 668 l-7 88 -66 -6 c-193 -18 -587 -73 -643
-91 -10 -3 -18 -11 -18 -18 0 -12 23 -180 144 -1066 19 -135 31 -248 27 -251
-8 -8 -191 -32 -197 -26 -5 5 -39 249 -150 1056 -19 140 -35 256 -37 257 -6 6
-279 -70 -424 -117 -182 -59 -312 -110 -449 -174 -87 -40 -96 -47 -90 -67 3
-13 77 -281 164 -596 138 -497 157 -574 143 -581 -25 -12 -181 -54 -185 -50
-2 2 -63 220 -136 484 -152 552 -178 647 -183 651 -3 4 -76 -35 -156 -83 -20
-12 -49 -29 -66 -39 -16 -9 -156 -102 -310 -207 -154 -104 -286 -192 -294
-195 -18 -7 -8 24 39 118 112 221 334 439 617 606 54 32 99 58 100 58 2 1 -51
194 -357 1301 -127 462 -250 905 -272 985 -22 80 -109 395 -193 700 -84 305
-158 574 -164 598 -7 23 -16 42 -20 42 -5 0 -47 -51 -94 -112z"/>
<path d="M7575 5065 c-350 -65 -620 -336 -681 -685 -19 -110 -14 -246 12 -350
22 -87 83 -217 138 -295 148 -207 420 -345 681 -345 261 0 533 138 681 345 55
79 116 208 140 300 25 97 25 303 0 400 -24 92 -85 221 -140 300 -181 253 -520
388 -831 330z"/>
</g>
</svg>
